<svg xmlns="http://www.w3.org/2000/svg" version="1" viewBox="0 0 512 512"><path fill="#090609" d="M363 181c-5 0-8 3-8 7v10c0 15-5 29-14 41l-16 19-2 5v57c0 4 4 7 8 7s7-3 7-7v-54l14-18c12-14 18-32 18-50v-10c0-4-3-7-7-7"/><path d="M331 342c-4 0-8 4-8 8v147H195v-39c0-4-3-7-7-7-5 0-8 3-8 7v46c0 5 3 8 8 8h143c4 0 7-3 7-7V350c0-4-3-8-7-8M487 48H367a29 29 0 0 0-39-13 28 28 0 0 0-44-19 28 28 0 0 0-50 0c-5-4-11-6-17-6-16 0-28 13-28 29v20c-9-8-20-13-32-13l-5 2H83l-1 1L4 86a8 8 0 0 0 0 14l37 17 41 20h67v75c0 16 7 32 19 44l12 10v162a7 7 0 1 0 15 0V263c0-2-1-4-3-5l-13-13c-10-9-15-21-15-33V62c14 3 24 16 24 31v43c0 4 3 7 7 8 0 0 20 2 40 11 25 12 38 28 38 50 0 4 4 7 8 7s7-3 7-7c0-28-16-50-47-64l-6-3 3-2a28 28 0 0 0 41 0 28 28 0 0 0 42 0 28 28 0 0 0 34 6v16c0 4 3 8 7 8s8-4 8-8v-20h116c14 0 26-12 26-26V74c0-15-11-26-25-26M78 118l-27-13V80l27-13v51zm15-55h56v60H93V63zm137 54c0 7-6 13-13 13s-13-6-13-13V39c0-8 6-14 13-14s13 6 13 14v78zm42-78v78c0 7-6 13-13 13-8 0-14-6-14-13V29c0-7 6-13 13-13 8 0 14 6 14 13v10zm42 21v57c0 7-6 13-14 13-7 0-13-6-13-13V39c0-8 6-14 13-14s13 6 13 14v21zm28 70c-7 0-13-6-13-13V60c0-7 6-13 13-13s13 6 13 13v57c0 7-6 13-13 13zm28-67h35v60h-35V63zm50 0h26v60h-26V63zm77 49c0 6-5 11-10 11h-26V63h25c6 0 11 5 11 11v38z"/></svg>