<svg xmlns="http://www.w3.org/2000/svg" xmlns:xlink="http://www.w3.org/1999/xlink" id="Vrstva_1" version="1" viewBox="0 0 352 512"><style>.st0,.st1{fill:#090609}.st1{clip-path:url(#SVGID_2_)}</style><path d="M40 167c4 0 7-3 7-7V32c0-10 8-17 17-17h224c9 0 17 7 17 17v64c0 4 3 7 7 7s8-3 8-7V32c0-18-15-32-32-32H64C46 0 32 14 32 32v128c0 4 3 7 8 7m248 273c0-4-4-7-8-7H72c-5 0-8 3-8 7s3 8 8 8h208c4 0 8-3 8-8" class="st0"/><path d="M72 32c-5 0-8 4-8 8s3 7 8 7h208c4 0 8-3 8-7s-4-8-8-8H72m96 433c-4 0-8 3-8 7s4 8 8 8h16c4 0 7-4 7-8s-3-7-7-7h-16M56 280h8a24 24 0 0 0 0-47h-8a24 24 0 0 0 0 47m0-32h8a8 8 0 1 1 0 17h-8a8 8 0 1 1 0-17zm96 32c6 0 12-3 16-7a23 23 0 0 0 39-17 24 24 0 0 0-39-17 23 23 0 0 0-40 17c0 13 11 24 24 24m32-32a8 8 0 1 1 0 17c-5 0-9-4-9-9s4-8 9-8zm-32 0c5 0 8 3 8 8a8 8 0 1 1-8-8zm-96 64c4 0 7-4 7-8s-3-7-7-7H40c-4 0-8 3-8 7s4 8 8 8h16m80 0h16c4 0 7-4 7-8s-3-7-7-7h-16c-4 0-8 3-8 7s4 8 8 8m-56-8c0 4 4 8 8 8h16c4 0 7-4 7-8s-3-7-7-7H88c-4 0-8 3-8 7" class="st0"/><defs><path id="SVGID_1_" d="M0 0h352v512H0z"/></defs><clipPath id="SVGID_2_"><use overflow="visible" xlink:href="#SVGID_1_"/></clipPath><path d="M200 297h-16c-4 0-8 3-8 7s4 8 8 8h16c4 0 7-4 7-8s-3-7-7-7" class="st1"/><path d="M328 120H136c-13 0-24 11-24 24v16a7 7 0 0 0 8 7h217v17h-73c-4 0-7 4-7 8s3 7 7 7h73v73c0 5-4 9-9 9h-64c-4 0-7 3-7 7s3 8 7 8h41v184c0 9-8 17-17 17H64c-10 0-17-8-17-17V360h169c13 0 24-11 24-24V208c0-13-11-24-24-24H24c-13 0-24 11-24 24v128c0 13 11 24 24 24h8v121c0 17 14 31 32 31h224c17 0 32-14 32-31V296h8c13 0 24-11 24-24V144c0-13-11-24-24-24M15 336V208c0-5 4-9 9-9h192c5 0 8 4 8 9v128c0 5-3 9-8 9H24c-5 0-9-4-9-9zm112-184v-8c0-5 4-9 9-9h192c5 0 9 4 9 9v8H127z" class="st1"/></svg>