<svg xmlns="http://www.w3.org/2000/svg" xmlns:xlink="http://www.w3.org/1999/xlink" id="Vrstva_1" version="1" viewBox="0 0 513 501"><style>.st0{clip-path:url(#SVGID_2_);fill:#090609}</style><defs><path id="SVGID_1_" d="M0 1h512v501H0z"/></defs><clipPath id="SVGID_2_"><use overflow="visible" xlink:href="#SVGID_1_"/></clipPath><path d="M46 202c5 3 10 7 13 13l8 18a7 7 0 0 0 14 1l8-19c2-6 7-10 13-13l18-8a7 7 0 0 0 0-14l-18-8c-6-3-11-7-13-13l-8-18a7 7 0 0 0-14 0l-8 18c-3 6-8 10-13 13l-19 8a7 7 0 0 0 0 14l19 8m6-16c9-5 16-12 20-21l2-3 1 3c4 9 12 16 21 21l3 1-3 1c-10 4-17 12-21 21l-1 3-2-3c-4-9-11-17-20-21l-3-1 3-1z" class="st0"/><path d="M490 44H287l-16-8c-6-2-11-7-14-13l-8-18a7 7 0 0 0-13 0l-9 18c-2 6-7 11-13 13l-17 8H23C10 44 0 54 0 66v37c0 4 3 7 8 7 4 0 7-3 7-7V66c0-4 3-7 8-7h174l17 7c6 3 11 8 13 14l8 18a7 7 0 0 0 14 0l8-18c3-6 7-11 13-14l17-7h202c4 0 8 3 8 7v272h-15l-17-7c-6-3-10-8-13-14l-8-18a7 7 0 0 0-14 0l-8 18c-3 6-7 11-13 14l-17 7h-8V106a7 7 0 0 0-8-7h-99c-4 0-7 3-7 7v51c0 4 3 7 7 7s8-3 8-7v-43h84v49h-23c-4 0-8 3-8 8 0 4 4 7 8 7h23v30h-36c-4 0-7 4-7 8s3 7 7 7h36v31h-23c-4 0-8 3-8 7s4 8 8 8h23v30h-36c-4 0-7 3-7 7 0 5 3 8 7 8h36v24h-84V187c0-4-4-8-8-8s-7 4-7 8v151h-43V184l-1-4-20-41-19-36c-1-3-4-4-7-4s-5 1-6 4l-39 78h-1v76c0 4 3 8 7 8s8-4 8-8v-65h63v146h-63v-51c0-4-4-7-8-7s-7 3-7 7v51H15V133c0-5-3-8-7-8-5 0-8 3-8 8v267c0 12 10 22 23 22h164l-4 38h-36c-4 0-8 3-8 7v26c0 5 4 8 8 8h218c4 0 8-3 8-7v-27c0-4-4-7-8-7h-36l-4-38h164c13 0 23-10 23-22V66c0-12-10-22-22-22M244 74l-2 3-1-3-1-2c-4-9-11-15-20-19l-3-2 3-1c9-4 17-11 21-21l1-3 2 3c4 10 11 17 20 21l3 1-3 2c-9 4-16 11-20 21zm-91 103l14-27h27l14 26h-55zm283 147l1-3 1 3c4 9 12 16 21 20l3 2-3 1c-9 4-17 12-21 21l-1 3-1-3c-4-9-12-17-21-21l-3-1 3-2c9-4 17-11 21-20zM154 475h203v11H155v-11zm160-15H198l4-38h108l4 38zm183-60c0 4-3 7-7 7H23c-5 0-8-3-8-7v-47h377l17 8c6 2 11 7 13 13l8 18a7 7 0 0 0 14 0l8-18c3-6 7-11 13-13l17-8h15v47z" class="st0"/></svg>