<svg xmlns="http://www.w3.org/2000/svg" xmlns:xlink="http://www.w3.org/1999/xlink" version="1" viewBox="0 0 512 512"><defs><path id="a" d="M0 0h512v512H0z"/></defs><clipPath id="b"><use overflow="visible" xlink:href="#a"/></clipPath><path fill="#090609" d="M510 413L346 250l123-123 2-3 21-60 18-53c1-2 1-6-2-8-2-2-5-2-7-1l-53 18-60 21-3 2-66 67c-3 3-3 7 0 10s7 3 10 0l62-61 62 62-208 209-85 85-63-63 211-210c3-3 3-8 0-11s-8-3-11 0l-35 35-22-22-32-32-32-32L98 2a7 7 0 0 0-10 0L2 88c-3 2-3 7 0 10l33 33c3 3 8 3 11 0s3-8 0-11L18 93l75-75 35 35-21 21c-3 3-3 8 0 11l5 2 6-2 20-21 22 21-32 32c-3 2-3 7 0 10 2 2 4 2 6 2s3 0 5-2l32-31 21 21-21 21c-3 3-3 8 0 11l5 2 6-3 21-20 21 21-32 32c-2 2-2 7 0 10 2 2 4 2 6 2s4 0 5-2l32-31 17 17-75 74L67 143c-3-3-8-3-11 0-2 3-2 8 0 10l110 110L10 419a32 32 0 0 0 0 46l37 37a32 32 0 0 0 46 0l33-32 124-124 42 41c3 3 7 3 10 0 3-2 3-7 0-10l-42-42 75-75 17 17-21 21c-3 3-3 8 0 11l6 2 5-2 21-21 21 21-31 32c-3 3-3 7 0 10 1 2 3 3 5 3s4-1 5-3l32-31 21 21-21 21c-3 3-3 8 0 11l6 2 5-2 21-21 21 21-31 32c-3 3-3 7 0 10 1 2 3 3 5 3s4-1 5-3l32-31 35 35-75 74-95-94c-3-3-8-3-11 0-3 2-3 7 0 10l100 100c2 2 4 2 6 2s3 0 5-2l85-85c2-2 3-3 3-5l-2-6M491 21l-10 27-17-17 27-10zm-87 31l45-16 27 27-16 45-56-56zM82 492c-3 3-7 5-12 5s-9-2-12-5l-38-38c-3-3-5-7-5-12s2-9 5-12l27-28 63 63-28 27zm38-38l-62-62 29-29 62 62-29 29z" clip-path="url(#b)"/></svg>