<?xml version="1.0" encoding="utf-8"?>
<!-- Generator: Adobe Illustrator 16.0.0, SVG Export Plug-In . SVG Version: 6.00 Build 0)  -->
<!DOCTYPE svg PUBLIC "-//W3C//DTD SVG 1.1//EN" "http://www.w3.org/Graphics/SVG/1.1/DTD/svg11.dtd">
<svg version="1.1" xmlns="http://www.w3.org/2000/svg" xmlns:xlink="http://www.w3.org/1999/xlink" x="0px" y="0px" width="40px"
	 height="40px" viewBox="0 0 40 40" enable-background="new 0 0 40 40" xml:space="preserve">
<g id="Obdélník_1117_1_" enable-background="new    ">
	<g id="Obdélník_1117">
		<g>
			<circle fill-rule="evenodd" clip-rule="evenodd" fill="#F03846" cx="20" cy="20" r="20"/>
		</g>
	</g>
</g>
<g id="_x201C_">
	<g>
		<g>
			<path fill="#F1F4F7" d="M14.502,23.26c-0.387-0.52-0.58-1.166-0.58-1.94c0-0.986,0.26-2.073,0.78-3.26
				c0.52-1.187,1.153-2.126,1.899-2.82l1.12,0.8c-0.507,0.614-0.92,1.294-1.24,2.04c-0.32,0.747-0.494,1.507-0.52,2.28
				c0.106-0.053,0.293-0.08,0.56-0.08c0.48,0,0.893,0.16,1.24,0.48c0.347,0.32,0.521,0.747,0.521,1.28
				c0,0.56-0.188,1.034-0.561,1.42c-0.374,0.387-0.854,0.58-1.439,0.58C15.482,24.041,14.888,23.78,14.502,23.26z M20.082,23.26
				c-0.4-0.52-0.6-1.166-0.6-1.94c0-0.96,0.266-2.04,0.8-3.24c0.533-1.2,1.173-2.146,1.92-2.84l1.08,0.8
				c-0.48,0.614-0.88,1.294-1.2,2.04c-0.32,0.747-0.507,1.507-0.56,2.28c0.133-0.053,0.32-0.08,0.56-0.08
				c0.48,0,0.893,0.16,1.24,0.48c0.346,0.32,0.52,0.747,0.52,1.28c0,0.587-0.18,1.067-0.54,1.44c-0.36,0.374-0.847,0.56-1.46,0.56
				C21.068,24.041,20.482,23.78,20.082,23.26z"/>
		</g>
	</g>
</g>
</svg>
